<svg width="24" height="24" viewBox="0 0 24 24" fill="none" xmlns="http://www.w3.org/2000/svg">
<path d="M21.8095 3.94012C20.2695 7.78012 16.4095 13.0001 13.1795 15.5901L11.2095 17.1701C10.9595 17.3501 10.7095 17.5101 10.4295 17.6201C10.4295 17.4401 10.4195 17.2401 10.3895 17.0501C10.2795 16.2101 9.89953 15.4301 9.22953 14.7601C8.54953 14.0801 7.71953 13.6801 6.86953 13.5701C6.66953 13.5601 6.46953 13.5401 6.26953 13.5601C6.37953 13.2501 6.54953 12.9601 6.75953 12.7201L8.31953 10.7501C10.8995 7.52012 16.1395 3.64012 19.9695 2.11012C20.5595 1.89012 21.1295 2.05012 21.4895 2.42012C21.8695 2.79012 22.0495 3.36012 21.8095 3.94012Z" stroke="#252B37" stroke-width="1.5" stroke-linecap="round" stroke-linejoin="round"/>
<path d="M10.4293 17.6201C10.4293 18.7201 10.0093 19.77 9.2193 20.57C8.6093 21.18 7.7793 21.6001 6.7893 21.7301L4.3293 22.0001C2.9893 22.1501 1.8393 21.01 1.9993 19.65L2.2693 17.1901C2.5093 15.0001 4.3393 13.6001 6.2793 13.5601C6.4793 13.5501 6.6893 13.56 6.8793 13.57C7.7293 13.68 8.5593 14.0701 9.2393 14.7601C9.9093 15.4301 10.2893 16.21 10.3993 17.05C10.4093 17.24 10.4293 17.4301 10.4293 17.6201Z" stroke="#252B37" stroke-width="1.5" stroke-linecap="round" stroke-linejoin="round"/>
<path d="M14.2417 14.47C14.2417 11.86 12.1217 9.73999 9.51172 9.73999" stroke="#252B37" stroke-width="1.5" stroke-linecap="round" stroke-linejoin="round"/>
</svg>
