<svg width="24" height="24" viewBox="0 0 24 24" fill="none" xmlns="http://www.w3.org/2000/svg">
<path d="M16.6713 20.8299C16.6512 20.8299 16.6412 20.8299 16.6312 20.8299H5.54125C2.60125 20.6199 1.28125 18.3499 1.28125 16.3399C1.28125 14.5399 2.33125 12.5399 4.61125 11.9899C3.61125 8.14995 5.51125 5.45995 7.75125 4.18995C10.3512 2.70995 14.2213 2.69995 16.5712 5.54995C16.5913 5.57995 16.6112 5.60995 16.6312 5.63995C17.3312 6.52995 17.8212 7.59995 18.1012 8.83995C19.3312 9.10995 20.3912 9.76995 21.2212 10.7499C23.1112 12.9799 23.4713 16.8599 20.7712 19.2399C19.6512 20.2699 18.2013 20.8299 16.6713 20.8299ZM11.4913 4.69995C10.4312 4.69995 9.38125 4.98995 8.50125 5.48995C6.08125 6.86995 5.26125 9.42995 6.30125 12.3499C6.38125 12.5799 6.35125 12.8399 6.21125 13.0299C6.07125 13.2199 5.84125 13.3499 5.60125 13.3499C3.66125 13.4899 2.79125 14.9499 2.79125 16.3399C2.79125 17.7299 3.66125 19.1899 5.60125 19.3399H16.6412C17.8013 19.3499 18.9212 18.9199 19.7712 18.1399L19.7812 18.1299C21.8113 16.3499 21.5112 13.4199 20.0812 11.7299C19.3812 10.8999 18.4512 10.3899 17.3812 10.2499C17.0512 10.2099 16.7913 9.95995 16.7413 9.62995C16.5312 8.38995 16.0913 7.34995 15.4313 6.52995C15.4113 6.50995 15.4013 6.47995 15.3813 6.45995C14.3213 5.21995 12.9012 4.69995 11.4913 4.69995Z" fill="#252B37"/>
<path d="M7.25984 13.7598C7.14984 13.7598 7.02984 13.7298 6.92984 13.6798C6.50984 13.4698 6.04984 13.3598 5.57984 13.3498C5.16984 13.3398 4.83984 12.9998 4.83984 12.5898C4.84984 12.1798 5.23984 11.8398 5.59984 11.8498C6.28984 11.8598 6.97984 12.0298 7.58984 12.3398C7.95984 12.5198 8.10984 12.9798 7.92984 13.3498C7.79984 13.6098 7.53984 13.7598 7.25984 13.7598Z" fill="#252B37"/>
<path d="M15.8481 10.6702C15.5681 10.6702 15.3081 10.5202 15.1781 10.2502C14.9881 9.88022 15.1481 9.43022 15.5181 9.24022C16.1381 8.93022 16.8281 8.76022 17.5081 8.75022C17.9081 8.74022 18.2681 9.07022 18.2681 9.49022C18.2781 9.90022 17.9481 10.2502 17.5281 10.2502C17.0681 10.2602 16.5981 10.3702 16.1781 10.5802C16.0681 10.6402 15.9581 10.6702 15.8481 10.6702Z" fill="#252B37"/>
<path d="M20.65 11.98C20.44 11.98 20.22 11.89 20.07 11.71C19.38 10.88 18.44 10.37 17.37 10.23C17.04 10.19 16.78 9.94 16.73 9.61C16.52 8.37 16.08 7.33 15.42 6.51C15.31 6.38 15.25 6.21 15.25 6.04C15.25 5.84 15.33 5.64 15.47 5.5C16.27 4.69 17.33 4.25 18.47 4.25C20.81 4.25 22.72 6.16 22.72 8.5C22.72 9.8 22.14 11.01 21.12 11.82C20.98 11.93 20.82 11.98 20.65 11.98ZM18.11 8.84C19.07 9.05 19.94 9.5 20.66 10.16C21.02 9.69 21.22 9.11 21.22 8.5C21.22 6.98 19.99 5.75 18.47 5.75C17.95 5.75 17.45 5.89 17.02 6.17C17.53 6.94 17.89 7.84 18.11 8.84Z" fill="#252B37"/>
</svg>
