<svg width="24" height="24" viewBox="0 0 24 24" fill="none" xmlns="http://www.w3.org/2000/svg">
<path d="M16.6713 20.83C16.6512 20.83 16.6412 20.83 16.6312 20.83H5.54125C2.60125 20.62 1.28125 18.35 1.28125 16.34C1.28125 14.54 2.33125 12.54 4.61125 11.99C3.98125 9.47001 4.53125 7.11001 6.19125 5.40001C8.07125 3.46001 11.0612 2.71001 13.6112 3.54001C14.0013 3.67001 14.2213 4.09001 14.0913 4.48001C13.9613 4.87001 13.5413 5.09001 13.1512 4.96001C11.1213 4.31001 8.75125 4.90001 7.26125 6.45001C5.81125 7.95001 5.47125 10.04 6.30125 12.35C6.38125 12.58 6.35125 12.84 6.21125 13.03C6.07125 13.22 5.84125 13.35 5.60125 13.35C3.66125 13.49 2.79125 14.95 2.79125 16.34C2.79125 17.73 3.66125 19.19 5.60125 19.34H16.6412C17.7812 19.35 18.9212 18.92 19.7712 18.14C20.9212 17.13 21.4212 15.66 21.1712 14.1C21.1012 13.69 21.3813 13.31 21.7913 13.24C22.2013 13.17 22.5812 13.45 22.6512 13.86C22.9912 15.92 22.2812 17.94 20.7812 19.26C19.6612 20.26 18.2013 20.83 16.6713 20.83Z" fill="#252B37"/>
<path d="M7.25984 13.7598C7.14984 13.7598 7.02984 13.7298 6.92984 13.6798C6.50984 13.4698 6.04984 13.3598 5.57984 13.3498C5.16984 13.3398 4.83984 12.9998 4.83984 12.5898C4.84984 12.1798 5.23984 11.8398 5.59984 11.8498C6.28984 11.8598 6.97984 12.0298 7.58984 12.3398C7.95984 12.5198 8.10984 12.9798 7.92984 13.3498C7.79984 13.6098 7.53984 13.7598 7.25984 13.7598Z" fill="#252B37"/>
<path d="M18.4687 12.7498C16.1287 12.7498 14.2188 10.8398 14.2188 8.49977C14.2188 7.39977 14.6387 6.35977 15.3987 5.57977C15.4187 5.54977 15.4387 5.52977 15.4587 5.50977C16.2587 4.69977 17.3187 4.25977 18.4587 4.25977C20.7987 4.25977 22.7087 6.16977 22.7087 8.50977C22.7087 9.80977 22.1288 11.0198 21.1088 11.8298C20.3788 12.4198 19.4387 12.7498 18.4687 12.7498ZM16.5988 6.49977C16.5788 6.52977 16.5588 6.54977 16.5288 6.57977C16.0088 7.08977 15.7188 7.77977 15.7188 8.50977C15.7188 10.0298 16.9487 11.2598 18.4687 11.2598C19.0887 11.2598 19.6988 11.0498 20.1788 10.6598C20.8488 10.1298 21.2187 9.34977 21.2187 8.50977C21.2187 6.98977 19.9887 5.75977 18.4687 5.75977C17.7587 5.74977 17.0988 6.01977 16.5988 6.49977Z" fill="#252B37"/>
</svg>
