<svg width="20" height="20" viewBox="0 0 20 20" fill="none" xmlns="http://www.w3.org/2000/svg">
<path d="M9.62431 19.2486C16.0414 19.2486 19.2486 14.9394 19.2486 9.62362C19.2486 4.30925 16.0414 0 9.62362 0C3.20719 0 0 4.30925 0 9.62431C0 14.9394 3.2065 19.2486 9.62431 19.2486Z" fill="url(#paint0_radial_2435_5825)"/>
<path d="M9.62431 19.2486C16.0414 19.2486 19.2486 14.9394 19.2486 9.62362C19.2486 4.30925 16.0414 0 9.62362 0C3.20719 0 0 4.30925 0 9.62431C0 14.9394 3.2065 19.2486 9.62431 19.2486Z" fill="url(#paint1_radial_2435_5825)"/>
<path d="M9.62431 19.2486C16.0414 19.2486 19.2486 14.9394 19.2486 9.62362C19.2486 4.30925 16.0414 0 9.62362 0C3.20719 0 0 4.30925 0 9.62431C0 14.9394 3.2065 19.2486 9.62431 19.2486Z" fill="url(#paint2_radial_2435_5825)"/>
<path d="M9.62431 19.2486C16.0414 19.2486 19.2486 14.9394 19.2486 9.62362C19.2486 4.30925 16.0414 0 9.62362 0C3.20719 0 0 4.30925 0 9.62431C0 14.9394 3.2065 19.2486 9.62431 19.2486Z" fill="url(#paint3_radial_2435_5825)" fill-opacity="0.6"/>
<path d="M9.62431 19.2486C16.0414 19.2486 19.2486 14.9394 19.2486 9.62362C19.2486 4.30925 16.0414 0 9.62362 0C3.20719 0 0 4.30925 0 9.62431C0 14.9394 3.2065 19.2486 9.62431 19.2486Z" fill="url(#paint4_radial_2435_5825)"/>
<path d="M9.62431 19.2486C16.0414 19.2486 19.2486 14.9394 19.2486 9.62362C19.2486 4.30925 16.0414 0 9.62362 0C3.20719 0 0 4.30925 0 9.62431C0 14.9394 3.2065 19.2486 9.62431 19.2486Z" fill="url(#paint5_radial_2435_5825)"/>
<path d="M9.62431 19.2486C16.0414 19.2486 19.2486 14.9394 19.2486 9.62362C19.2486 4.30925 16.0414 0 9.62362 0C3.20719 0 0 4.30925 0 9.62431C0 14.9394 3.2065 19.2486 9.62431 19.2486Z" fill="url(#paint6_radial_2435_5825)"/>
<path d="M9.62431 19.2486C16.0414 19.2486 19.2486 14.9394 19.2486 9.62362C19.2486 4.30925 16.0414 0 9.62362 0C3.20719 0 0 4.30925 0 9.62431C0 14.9394 3.2065 19.2486 9.62431 19.2486Z" fill="url(#paint7_radial_2435_5825)"/>
<g filter="url(#filter0_f_2435_5825)">
<path d="M5.1201 11.9128C5.03929 11.9531 4.95133 11.9772 4.86124 11.9835C4.77114 11.9899 4.68067 11.9784 4.595 11.9498C4.50932 11.9212 4.43012 11.8761 4.36192 11.8168C4.29371 11.7576 4.23783 11.6856 4.19747 11.6048C4.15712 11.524 4.13307 11.436 4.12671 11.3459C4.12035 11.2558 4.13179 11.1653 4.16039 11.0797C4.18899 10.994 4.23419 10.9148 4.2934 10.8466C4.35261 10.7784 4.42467 10.7225 4.50547 10.6821L6.0221 9.92383H8.25029C8.25009 10.0514 8.21443 10.1763 8.14729 10.2847C8.08015 10.3932 7.98418 10.4808 7.8701 10.5378L5.1201 11.9128Z" fill="url(#paint8_radial_2435_5825)" fill-opacity="0.6"/>
<path d="M5.1201 7.93576C5.03929 7.8954 4.95133 7.87135 4.86124 7.86499C4.77114 7.85863 4.68067 7.87007 4.595 7.89867C4.50932 7.92727 4.43012 7.97247 4.36192 8.03168C4.29371 8.09089 4.23783 8.16295 4.19747 8.24376C4.15712 8.32456 4.13307 8.41252 4.12671 8.50262C4.12035 8.59272 4.13179 8.68318 4.16039 8.76886C4.18899 8.85453 4.23419 8.93373 4.2934 9.00194C4.35261 9.07015 4.42467 9.12602 4.50547 9.16638L6.0221 9.92401H8.25029C8.24996 9.7966 8.21424 9.67178 8.14711 9.5635C8.07998 9.45521 7.98407 9.36771 7.8701 9.31076L5.1201 7.93576Z" fill="url(#paint9_radial_2435_5825)" fill-opacity="0.6"/>
</g>
<path d="M5.1207 11.6123C5.03985 11.6535 4.95165 11.6782 4.86118 11.6852C4.77072 11.6921 4.67977 11.6811 4.59358 11.6527C4.5074 11.6243 4.42769 11.5792 4.35904 11.5199C4.29039 11.4605 4.23417 11.3882 4.19361 11.307C4.15305 11.2259 4.12895 11.1375 4.12272 11.0469C4.11648 10.9564 4.12823 10.8656 4.15728 10.7796C4.18632 10.6936 4.2321 10.6143 4.29196 10.5461C4.35183 10.4779 4.4246 10.4223 4.50608 10.3823L6.0227 9.62402H8.25089C8.25056 9.75143 8.21484 9.87624 8.14771 9.98453C8.08058 10.0928 7.98467 10.1803 7.8707 10.2373L5.1207 11.6123Z" fill="url(#paint10_linear_2435_5825)"/>
<path d="M5.1207 7.63547C5.03985 7.59428 4.95165 7.5695 4.86118 7.56256C4.77072 7.55562 4.67977 7.56666 4.59358 7.59503C4.5074 7.62341 4.42769 7.66857 4.35904 7.7279C4.29039 7.78723 4.23417 7.85956 4.19361 7.94073C4.15305 8.02189 4.12895 8.11028 4.12272 8.2008C4.11648 8.29132 4.12823 8.38218 4.15728 8.46814C4.18632 8.5541 4.2321 8.63346 4.29196 8.70164C4.35183 8.76983 4.4246 8.82549 4.50608 8.86541L6.0227 9.62372H8.25089C8.25056 9.49632 8.21484 9.3715 8.14771 9.26321C8.08058 9.15493 7.98467 9.06743 7.8707 9.01047L5.1207 7.63547Z" fill="url(#paint11_linear_2435_5825)"/>
<g filter="url(#filter1_f_2435_5825)">
<path d="M13.7233 11.9128C13.8864 11.9944 14.0754 12.0078 14.2485 11.9501C14.4215 11.8924 14.5646 11.7683 14.6462 11.6051C14.7278 11.4419 14.7412 11.253 14.6835 11.0799C14.6258 10.9068 14.5018 10.7637 14.3386 10.6821L12.8212 9.92383H10.5938C10.5939 10.0513 10.6294 10.1762 10.6965 10.2846C10.7635 10.393 10.8593 10.4807 10.9733 10.5378L13.7233 11.9128Z" fill="url(#paint12_radial_2435_5825)"/>
<path d="M13.7233 7.93591C13.8041 7.89551 13.892 7.87142 13.9821 7.86501C14.0723 7.85861 14.1627 7.87002 14.2485 7.89858C14.3342 7.92715 14.4134 7.97232 14.4816 8.03151C14.5499 8.09071 14.6058 8.16276 14.6462 8.24357C14.6866 8.32437 14.7107 8.41234 14.7171 8.50245C14.7235 8.59257 14.7121 8.68306 14.6835 8.76877C14.655 8.85447 14.6098 8.93371 14.5506 9.00196C14.4914 9.07021 14.4194 9.12613 14.3386 9.16653L12.8212 9.92416H10.5938C10.594 9.79682 10.6296 9.67206 10.6966 9.56378C10.7636 9.4555 10.8594 9.36796 10.9733 9.31091L13.7233 7.93591Z" fill="url(#paint13_radial_2435_5825)"/>
</g>
<path d="M14.1178 11.6123C14.2809 11.6939 14.4697 11.7073 14.6427 11.6497C14.8158 11.5921 14.9588 11.4681 15.0404 11.305C15.122 11.1419 15.1355 10.953 15.0778 10.78C15.0202 10.607 14.8962 10.4639 14.7331 10.3823L13.2158 9.62402H10.9883C10.9885 9.75136 11.0242 9.87612 11.0912 9.9844C11.1582 10.0927 11.2539 10.1802 11.3678 10.2373L14.1178 11.6123Z" fill="url(#paint14_linear_2435_5825)"/>
<path d="M14.1178 7.63516C14.2809 7.55357 14.4697 7.54011 14.6427 7.59774C14.8158 7.65537 14.9588 7.77938 15.0404 7.94248C15.122 8.10558 15.1355 8.29441 15.0778 8.46744C15.0202 8.64046 14.8962 8.78351 14.7331 8.8651L13.2158 9.62342H10.9883C10.9885 9.49608 11.0242 9.37132 11.0912 9.26304C11.1582 9.15475 11.2539 9.06721 11.3678 9.01017L14.1178 7.63516Z" fill="url(#paint15_linear_2435_5825)"/>
<g filter="url(#filter2_f_2435_5825)">
<path d="M7.47656 14.4982L9.12106 15.8746M10.9904 14.2734L12.6349 15.6498" stroke="#CD6256" stroke-width="1.3125" stroke-linecap="round" stroke-linejoin="round"/>
</g>
<path d="M4.02344 14.0596L5.67069 15.438" stroke="url(#paint16_linear_2435_5825)" stroke-width="1.75" stroke-linecap="round" stroke-linejoin="round"/>
<path d="M5.67188 15.4381L7.57487 13.8369" stroke="url(#paint17_linear_2435_5825)" stroke-width="1.75" stroke-linecap="round" stroke-linejoin="round"/>
<path d="M7.65234 13.7852L9.62616 15.4386" stroke="url(#paint18_linear_2435_5825)" stroke-width="1.75" stroke-linecap="round" stroke-linejoin="round"/>
<path d="M11.5981 13.7852L9.625 15.4386" stroke="url(#paint19_linear_2435_5825)" stroke-width="1.75" stroke-linecap="round" stroke-linejoin="round"/>
<path d="M11.5977 13.7852L13.5715 15.4386" stroke="url(#paint20_linear_2435_5825)" stroke-width="1.75" stroke-linecap="round" stroke-linejoin="round"/>
<path d="M15.235 14.0439L13.5781 15.4382" stroke="url(#paint21_linear_2435_5825)" stroke-width="1.75" stroke-linecap="round" stroke-linejoin="round"/>
<path d="M4.02344 14.0589L5.67069 15.4373L7.64794 13.7832L9.62381 15.4373L11.6011 13.7832L13.5776 15.4373L15.2249 14.0589" stroke="url(#paint22_linear_2435_5825)" stroke-width="1.75" stroke-linecap="round" stroke-linejoin="round"/>
<g filter="url(#filter3_f_2435_5825)">
<path d="M4.02344 14.0589L5.67069 15.4373L7.64794 13.7832L9.62381 15.4373L11.6011 13.7832L13.5776 15.4373L15.2249 14.0589" stroke="#694C5E" stroke-width="0.4375" stroke-linecap="round" stroke-linejoin="round"/>
</g>
<defs>
<filter id="filter0_f_2435_5825" x="3.6875" y="7.42578" width="5" height="4.99707" filterUnits="userSpaceOnUse" color-interpolation-filters="sRGB">
<feFlood flood-opacity="0" result="BackgroundImageFix"/>
<feBlend mode="normal" in="SourceGraphic" in2="BackgroundImageFix" result="shape"/>
<feGaussianBlur stdDeviation="0.21875" result="effect1_foregroundBlur_2435_5825"/>
</filter>
<filter id="filter1_f_2435_5825" x="10.1562" y="7.42578" width="5" height="4.99707" filterUnits="userSpaceOnUse" color-interpolation-filters="sRGB">
<feFlood flood-opacity="0" result="BackgroundImageFix"/>
<feBlend mode="normal" in="SourceGraphic" in2="BackgroundImageFix" result="shape"/>
<feGaussianBlur stdDeviation="0.21875" result="effect1_foregroundBlur_2435_5825"/>
</filter>
<filter id="filter2_f_2435_5825" x="5.50781" y="12.3047" width="9.09766" height="5.53906" filterUnits="userSpaceOnUse" color-interpolation-filters="sRGB">
<feFlood flood-opacity="0" result="BackgroundImageFix"/>
<feBlend mode="normal" in="SourceGraphic" in2="BackgroundImageFix" result="shape"/>
<feGaussianBlur stdDeviation="0.65625" result="effect1_foregroundBlur_2435_5825"/>
</filter>
<filter id="filter3_f_2435_5825" x="3.14844" y="12.9082" width="12.9531" height="3.4043" filterUnits="userSpaceOnUse" color-interpolation-filters="sRGB">
<feFlood flood-opacity="0" result="BackgroundImageFix"/>
<feBlend mode="normal" in="SourceGraphic" in2="BackgroundImageFix" result="shape"/>
<feGaussianBlur stdDeviation="0.328125" result="effect1_foregroundBlur_2435_5825"/>
</filter>
<radialGradient id="paint0_radial_2435_5825" cx="0" cy="0" r="1" gradientUnits="userSpaceOnUse" gradientTransform="translate(16.1564 4.81221) rotate(132.839) scale(25.7835)">
<stop stop-color="#FFF478"/>
<stop offset="0.475" stop-color="#FFB02E"/>
<stop offset="1" stop-color="#F70A8D"/>
</radialGradient>
<radialGradient id="paint1_radial_2435_5825" cx="0" cy="0" r="1" gradientUnits="userSpaceOnUse" gradientTransform="translate(16.1554 4.81294) rotate(131.878) scale(26.7772)">
<stop stop-color="#FFF478"/>
<stop offset="0.475" stop-color="#FFB02E"/>
<stop offset="1" stop-color="#F70A8D"/>
</radialGradient>
<radialGradient id="paint2_radial_2435_5825" cx="0" cy="0" r="1" gradientUnits="userSpaceOnUse" gradientTransform="translate(9.62452 7.21856) rotate(101.31) scale(12.2695 15.7149)">
<stop offset="0.788" stop-color="#F59639" stop-opacity="0"/>
<stop offset="0.973" stop-color="#FF7DCE"/>
</radialGradient>
<radialGradient id="paint3_radial_2435_5825" cx="0" cy="0" r="1" gradientUnits="userSpaceOnUse" gradientTransform="translate(11 8.25) rotate(135) scale(28.1959)">
<stop offset="0.315" stop-opacity="0"/>
<stop offset="1"/>
</radialGradient>
<radialGradient id="paint4_radial_2435_5825" cx="0" cy="0" r="1" gradientUnits="userSpaceOnUse" gradientTransform="translate(9.62497 10.313) rotate(77.692) scale(19.351)">
<stop offset="0.508" stop-color="#7D6133" stop-opacity="0"/>
<stop offset="1" stop-color="#715B32"/>
</radialGradient>
<radialGradient id="paint5_radial_2435_5825" cx="0" cy="0" r="1" gradientUnits="userSpaceOnUse" gradientTransform="translate(9.96875 9.96875) rotate(55.713) scale(9.15303 6.6346)">
<stop stop-color="#FFB849"/>
<stop offset="1" stop-color="#FFB847" stop-opacity="0"/>
</radialGradient>
<radialGradient id="paint6_radial_2435_5825" cx="0" cy="0" r="1" gradientUnits="userSpaceOnUse" gradientTransform="translate(12.7188 11) rotate(9.86582) scale(8.02491)">
<stop stop-color="#FFA64B"/>
<stop offset="0.9" stop-color="#FFAE46" stop-opacity="0"/>
</radialGradient>
<radialGradient id="paint7_radial_2435_5825" cx="0" cy="0" r="1" gradientUnits="userSpaceOnUse" gradientTransform="translate(10.6563 8.93769) rotate(43.971) scale(40.5989)">
<stop offset="0.185" stop-opacity="0"/>
<stop offset="1" stop-opacity="0.4"/>
</radialGradient>
<radialGradient id="paint8_radial_2435_5825" cx="0" cy="0" r="1" gradientUnits="userSpaceOnUse" gradientTransform="translate(5.34972 7.86339) rotate(110.225) scale(5.22031 6.82294)">
<stop stop-color="#9F5E0F"/>
<stop offset="0.889" stop-color="#9F5E0F" stop-opacity="0"/>
</radialGradient>
<radialGradient id="paint9_radial_2435_5825" cx="0" cy="0" r="1" gradientUnits="userSpaceOnUse" gradientTransform="translate(5.34972 7.86357) rotate(110.225) scale(5.22031 6.82294)">
<stop stop-color="#9F5E0F"/>
<stop offset="0.889" stop-color="#9F5E0F" stop-opacity="0"/>
</radialGradient>
<linearGradient id="paint10_linear_2435_5825" x1="5.89826" y1="12.1911" x2="4.12589" y2="8.51715" gradientUnits="userSpaceOnUse">
<stop offset="0.25" stop-color="#482641"/>
<stop offset="0.406" stop-color="#503A4A"/>
<stop offset="0.511" stop-color="#482641"/>
</linearGradient>
<linearGradient id="paint11_linear_2435_5825" x1="4.71714" y1="9.72066" x2="6.36026" y2="6.49766" gradientUnits="userSpaceOnUse">
<stop offset="0.25" stop-color="#482641"/>
<stop offset="0.406" stop-color="#503A4A"/>
<stop offset="0.511" stop-color="#482641"/>
</linearGradient>
<radialGradient id="paint12_radial_2435_5825" cx="0" cy="0" r="1" gradientUnits="userSpaceOnUse" gradientTransform="translate(17.0707 12.6749) rotate(-135.995) scale(9.18479 12.0045)">
<stop stop-color="#E9830A"/>
<stop offset="0.802" stop-color="#F08B13" stop-opacity="0"/>
</radialGradient>
<radialGradient id="paint13_radial_2435_5825" cx="0" cy="0" r="1" gradientUnits="userSpaceOnUse" gradientTransform="translate(17.0707 12.6753) rotate(-135.995) scale(9.18479 12.0045)">
<stop stop-color="#E9830A"/>
<stop offset="0.802" stop-color="#F08B13" stop-opacity="0"/>
</radialGradient>
<linearGradient id="paint14_linear_2435_5825" x1="13.3402" y1="12.1911" x2="15.1133" y2="8.51715" gradientUnits="userSpaceOnUse">
<stop offset="0.25" stop-color="#482641"/>
<stop offset="0.406" stop-color="#503A4A"/>
<stop offset="0.511" stop-color="#482641"/>
</linearGradient>
<linearGradient id="paint15_linear_2435_5825" x1="14.522" y1="9.72035" x2="12.8782" y2="6.49735" gradientUnits="userSpaceOnUse">
<stop offset="0.25" stop-color="#482641"/>
<stop offset="0.406" stop-color="#503A4A"/>
<stop offset="0.511" stop-color="#482641"/>
</linearGradient>
<linearGradient id="paint16_linear_2435_5825" x1="3.73331" y1="15.0001" x2="6.35406" y2="11.8685" gradientUnits="userSpaceOnUse">
<stop stop-color="#482641"/>
<stop offset="0.323" stop-color="#57434E"/>
<stop offset="0.438" stop-color="#483637"/>
</linearGradient>
<linearGradient id="paint17_linear_2435_5825" x1="6.69969" y1="15.6031" x2="4.68875" y2="13.1494" gradientUnits="userSpaceOnUse">
<stop offset="0.02" stop-color="#482641"/>
<stop offset="0.323" stop-color="#57434E"/>
<stop offset="0.464" stop-color="#483637"/>
</linearGradient>
<linearGradient id="paint18_linear_2435_5825" x1="7.51553" y1="14.7057" x2="9.58422" y2="12.285" gradientUnits="userSpaceOnUse">
<stop offset="0.02" stop-color="#482641"/>
<stop offset="0.323" stop-color="#57434E"/>
<stop offset="0.464" stop-color="#483637"/>
</linearGradient>
<linearGradient id="paint19_linear_2435_5825" x1="11.7356" y1="14.7057" x2="9.66694" y2="12.285" gradientUnits="userSpaceOnUse">
<stop offset="0.02" stop-color="#482641"/>
<stop offset="0.323" stop-color="#57434E"/>
<stop offset="0.464" stop-color="#483637"/>
</linearGradient>
<linearGradient id="paint20_linear_2435_5825" x1="11.4608" y1="14.7057" x2="13.5295" y2="12.285" gradientUnits="userSpaceOnUse">
<stop offset="0.02" stop-color="#482641"/>
<stop offset="0.323" stop-color="#57434E"/>
<stop offset="0.464" stop-color="#483637"/>
</linearGradient>
<linearGradient id="paint21_linear_2435_5825" x1="15.6887" y1="14.706" x2="13.6201" y2="12.2846" gradientUnits="userSpaceOnUse">
<stop offset="0.02" stop-color="#482641"/>
<stop offset="0.323" stop-color="#57434E"/>
<stop offset="0.464" stop-color="#483637"/>
</linearGradient>
<linearGradient id="paint22_linear_2435_5825" x1="9.6245" y1="16.197" x2="9.6245" y2="15.1286" gradientUnits="userSpaceOnUse">
<stop stop-color="#53265E"/>
<stop offset="1" stop-color="#53265E" stop-opacity="0"/>
</linearGradient>
</defs>
</svg>
