<svg width="14" height="14" viewBox="0 0 14 14" fill="none" xmlns="http://www.w3.org/2000/svg">
<g clip-path="url(#clip0_722_25140)">
<path d="M4.87548 0.460421C3.47667 0.945683 2.27033 1.86673 1.43366 3.08827C0.596995 4.30981 0.1741 5.76745 0.227093 7.2471C0.280086 8.72675 0.806175 10.1504 1.72808 11.309C2.64999 12.4675 3.91913 13.2999 5.34908 13.6839C6.50837 13.983 7.72296 13.9961 8.88845 13.7221C9.94427 13.485 10.9204 12.9777 11.7213 12.25C12.5548 11.4694 13.1598 10.4764 13.4713 9.37776C13.8098 8.18303 13.87 6.9266 13.6474 5.70495H7.13736V8.40542H10.9075C10.8322 8.83613 10.6707 9.2472 10.4328 9.61405C10.1948 9.9809 9.88536 10.296 9.52283 10.5404C9.06245 10.845 8.54348 11.0499 7.99923 11.142C7.45339 11.2435 6.89351 11.2435 6.34767 11.142C5.79444 11.0276 5.27109 10.7993 4.81095 10.4715C4.07174 9.94825 3.51669 9.20487 3.22502 8.34745C2.92841 7.47398 2.92841 6.52702 3.22502 5.65355C3.43264 5.04128 3.77586 4.48382 4.22908 4.02276C4.74772 3.48546 5.40435 3.10139 6.1269 2.91269C6.84946 2.724 7.61003 2.73797 8.32517 2.95308C8.88383 3.12457 9.39469 3.4242 9.81705 3.82808C10.2422 3.40516 10.6665 2.98115 11.0902 2.55605C11.3089 2.32745 11.5474 2.1098 11.7628 1.87573C11.1181 1.27579 10.3614 0.808952 9.53595 0.501983C8.03282 -0.043809 6.38812 -0.0584766 4.87548 0.460421Z" fill="white"/>
<path d="M4.87594 0.460464C6.38844 -0.058786 8.03314 -0.0445045 9.53641 0.500933C10.362 0.809987 11.1184 1.27907 11.7622 1.88125C11.5434 2.11531 11.3127 2.33406 11.0895 2.56156C10.6652 2.9852 10.2411 3.40739 9.8175 3.82812C9.39514 3.42424 8.88428 3.12461 8.32562 2.95312C7.61072 2.73726 6.85018 2.72248 6.12743 2.9104C5.40468 3.09832 4.74765 3.48169 4.22844 4.01843C3.77522 4.47949 3.432 5.03695 3.22438 5.64921L0.957031 3.89375C1.7686 2.28436 3.17379 1.0533 4.87594 0.460464Z" fill="#E33629"/>
<path d="M0.358278 5.63286C0.480145 5.02889 0.68247 4.44398 0.959841 3.8938L3.22718 5.65364C2.93058 6.52712 2.93058 7.47407 3.22718 8.34755C2.47177 8.93088 1.71599 9.51713 0.959841 10.1063C0.265474 8.72414 0.0537045 7.14935 0.358278 5.63286Z" fill="#F8BD00"/>
<path d="M7.1372 5.70386H13.6472C13.8699 6.9255 13.8096 8.18193 13.4711 9.37667C13.1597 10.4753 12.5546 11.4683 11.7211 12.2489C10.9894 11.6779 10.2544 11.1114 9.52267 10.5404C9.88545 10.2957 10.1951 9.9803 10.433 9.61306C10.6709 9.24583 10.8323 8.83433 10.9074 8.40323H7.1372C7.13611 7.50417 7.1372 6.60401 7.1372 5.70386Z" fill="#587DBD"/>
<path d="M0.957031 10.1063C1.71318 9.52295 2.46896 8.9367 3.22438 8.34753C3.51663 9.20525 4.07247 9.94867 4.8125 10.4716C5.27407 10.7978 5.79855 11.0243 6.3525 11.1366C6.89834 11.2381 7.45822 11.2381 8.00406 11.1366C8.54831 11.0445 9.06728 10.8396 9.52766 10.535C10.2594 11.106 10.9944 11.6725 11.7261 12.2435C10.9253 12.9716 9.94921 13.4793 8.89328 13.7168C7.72779 13.9907 6.5132 13.9776 5.35391 13.6785C4.43702 13.4337 3.58058 13.0021 2.83828 12.4108C2.0526 11.787 1.41089 11.0009 0.957031 10.1063Z" fill="#319F43"/>
</g>
<defs>
<clipPath id="clip0_722_25140">
<rect width="14" height="14" fill="white"/>
</clipPath>
</defs>
</svg>
