<svg width="20" height="20" viewBox="0 0 20 20" fill="none" xmlns="http://www.w3.org/2000/svg">
<path d="M9.62431 19.2486C16.0414 19.2486 19.2486 14.9394 19.2486 9.62362C19.2486 4.30925 16.0414 0 9.62362 0C3.20719 0 0 4.30925 0 9.62431C0 14.9394 3.2065 19.2486 9.62431 19.2486Z" fill="url(#paint0_radial_2435_322)"/>
<path d="M9.62431 19.2486C16.0414 19.2486 19.2486 14.9394 19.2486 9.62362C19.2486 4.30925 16.0414 0 9.62362 0C3.20719 0 0 4.30925 0 9.62431C0 14.9394 3.2065 19.2486 9.62431 19.2486Z" fill="url(#paint1_radial_2435_322)"/>
<path d="M9.62431 19.2486C16.0414 19.2486 19.2486 14.9394 19.2486 9.62362C19.2486 4.30925 16.0414 0 9.62362 0C3.20719 0 0 4.30925 0 9.62431C0 14.9394 3.2065 19.2486 9.62431 19.2486Z" fill="url(#paint2_radial_2435_322)"/>
<path d="M9.62431 19.2486C16.0414 19.2486 19.2486 14.9394 19.2486 9.62362C19.2486 4.30925 16.0414 0 9.62362 0C3.20719 0 0 4.30925 0 9.62431C0 14.9394 3.2065 19.2486 9.62431 19.2486Z" fill="url(#paint3_radial_2435_322)" fill-opacity="0.6"/>
<path d="M9.62431 19.2486C16.0414 19.2486 19.2486 14.9394 19.2486 9.62362C19.2486 4.30925 16.0414 0 9.62362 0C3.20719 0 0 4.30925 0 9.62431C0 14.9394 3.2065 19.2486 9.62431 19.2486Z" fill="url(#paint4_radial_2435_322)"/>
<path d="M9.62431 19.2486C16.0414 19.2486 19.2486 14.9394 19.2486 9.62362C19.2486 4.30925 16.0414 0 9.62362 0C3.20719 0 0 4.30925 0 9.62431C0 14.9394 3.2065 19.2486 9.62431 19.2486Z" fill="url(#paint5_radial_2435_322)"/>
<path d="M9.62431 19.2486C16.0414 19.2486 19.2486 14.9394 19.2486 9.62362C19.2486 4.30925 16.0414 0 9.62362 0C3.20719 0 0 4.30925 0 9.62431C0 14.9394 3.2065 19.2486 9.62431 19.2486Z" fill="url(#paint6_radial_2435_322)"/>
<path d="M9.62431 19.2486C16.0414 19.2486 19.2486 14.9394 19.2486 9.62362C19.2486 4.30925 16.0414 0 9.62362 0C3.20719 0 0 4.30925 0 9.62431C0 14.9394 3.2065 19.2486 9.62431 19.2486Z" fill="url(#paint7_radial_2435_322)"/>
<path d="M3.4375 6.875C4.46875 7.90625 6.82687 7.65875 7.5625 6.1875" stroke="url(#paint8_linear_2435_322)" stroke-width="1.75" stroke-linecap="round" stroke-linejoin="round"/>
<path d="M15.8125 6.875C14.7812 7.90625 12.4231 7.65875 11.6875 6.1875" stroke="url(#paint9_linear_2435_322)" stroke-width="1.75" stroke-linecap="round" stroke-linejoin="round"/>
<path fill-rule="evenodd" clip-rule="evenodd" d="M7.21875 2.0625C7.30992 2.0625 7.39735 2.09872 7.46182 2.16318C7.52628 2.22765 7.5625 2.31508 7.5625 2.40625C7.5625 3.18725 7.26688 3.79775 6.80281 4.21025C6.34494 4.61656 5.74544 4.8125 5.15625 4.8125C5.06508 4.8125 4.97765 4.77628 4.91318 4.71182C4.84872 4.64735 4.8125 4.55992 4.8125 4.46875C4.8125 4.37758 4.84872 4.29015 4.91318 4.22568C4.97765 4.16122 5.06508 4.125 5.15625 4.125C5.59831 4.125 6.02937 3.97719 6.34562 3.696C6.655 3.421 6.875 3.00025 6.875 2.40625C6.875 2.31508 6.91122 2.22765 6.97568 2.16318C7.04015 2.09872 7.12758 2.0625 7.21875 2.0625Z" fill="url(#paint10_linear_2435_322)"/>
<path fill-rule="evenodd" clip-rule="evenodd" d="M12.0312 2.0625C11.9401 2.0625 11.8526 2.09872 11.7882 2.16318C11.7237 2.22765 11.6875 2.31508 11.6875 2.40625C11.6875 3.18725 11.9831 3.79775 12.4472 4.21025C12.9051 4.61656 13.5046 4.8125 14.0938 4.8125C14.1849 4.8125 14.2724 4.77628 14.3368 4.71182C14.4013 4.64735 14.4375 4.55992 14.4375 4.46875C14.4375 4.37758 14.4013 4.29015 14.3368 4.22568C14.2724 4.16122 14.1849 4.125 14.0938 4.125C13.6517 4.125 13.2206 3.97719 12.9044 3.696C12.595 3.421 12.375 3.00025 12.375 2.40625C12.375 2.31508 12.3388 2.22765 12.2743 2.16318C12.2099 2.09872 12.1224 2.0625 12.0312 2.0625Z" fill="url(#paint11_linear_2435_322)"/>
<path d="M15.5783 14.1153C15.8382 15.0289 15.0448 15.8127 14.0954 15.8127H5.15786C4.20842 15.8127 3.41505 15.0289 3.67492 14.1153C4.04471 12.8221 4.82559 11.6846 5.89943 10.8748C6.97327 10.065 8.28165 9.62695 9.62661 9.62695C10.9716 9.62695 12.2799 10.065 13.3538 10.8748C14.4276 11.6846 15.2085 12.8221 15.5783 14.1153Z" fill="url(#paint12_radial_2435_322)"/>
<path fill-rule="evenodd" clip-rule="evenodd" d="M13.5127 11H5.73438C6.83422 10.1083 8.20767 9.62275 9.62356 9.62501C11.0969 9.62501 12.4506 10.1406 13.5127 11Z" fill="url(#paint13_radial_2435_322)"/>
<defs>
<radialGradient id="paint0_radial_2435_322" cx="0" cy="0" r="1" gradientUnits="userSpaceOnUse" gradientTransform="translate(16.1564 4.81221) rotate(132.839) scale(25.7835)">
<stop stop-color="#FFF478"/>
<stop offset="0.475" stop-color="#FFB02E"/>
<stop offset="1" stop-color="#F70A8D"/>
</radialGradient>
<radialGradient id="paint1_radial_2435_322" cx="0" cy="0" r="1" gradientUnits="userSpaceOnUse" gradientTransform="translate(16.1554 4.81294) rotate(131.878) scale(26.7772)">
<stop stop-color="#FFF478"/>
<stop offset="0.475" stop-color="#FFB02E"/>
<stop offset="1" stop-color="#F70A8D"/>
</radialGradient>
<radialGradient id="paint2_radial_2435_322" cx="0" cy="0" r="1" gradientUnits="userSpaceOnUse" gradientTransform="translate(9.62452 7.21856) rotate(101.31) scale(12.2695 15.7149)">
<stop offset="0.788" stop-color="#F59639" stop-opacity="0"/>
<stop offset="0.973" stop-color="#FF7DCE"/>
</radialGradient>
<radialGradient id="paint3_radial_2435_322" cx="0" cy="0" r="1" gradientUnits="userSpaceOnUse" gradientTransform="translate(11 8.25) rotate(135) scale(28.1959)">
<stop offset="0.315" stop-opacity="0"/>
<stop offset="1"/>
</radialGradient>
<radialGradient id="paint4_radial_2435_322" cx="0" cy="0" r="1" gradientUnits="userSpaceOnUse" gradientTransform="translate(9.62497 10.313) rotate(77.692) scale(19.351)">
<stop offset="0.508" stop-color="#7D6133" stop-opacity="0"/>
<stop offset="1" stop-color="#715B32"/>
</radialGradient>
<radialGradient id="paint5_radial_2435_322" cx="0" cy="0" r="1" gradientUnits="userSpaceOnUse" gradientTransform="translate(9.96875 9.96875) rotate(55.713) scale(9.15303 6.6346)">
<stop stop-color="#FFB849"/>
<stop offset="1" stop-color="#FFB847" stop-opacity="0"/>
</radialGradient>
<radialGradient id="paint6_radial_2435_322" cx="0" cy="0" r="1" gradientUnits="userSpaceOnUse" gradientTransform="translate(12.7188 11) rotate(9.86582) scale(8.02491)">
<stop stop-color="#FFA64B"/>
<stop offset="0.9" stop-color="#FFAE46" stop-opacity="0"/>
</radialGradient>
<radialGradient id="paint7_radial_2435_322" cx="0" cy="0" r="1" gradientUnits="userSpaceOnUse" gradientTransform="translate(10.6563 8.93769) rotate(43.971) scale(40.5989)">
<stop offset="0.185" stop-opacity="0"/>
<stop offset="1" stop-opacity="0.4"/>
</radialGradient>
<linearGradient id="paint8_linear_2435_322" x1="6.325" y1="6.70313" x2="6.16344" y2="7.67319" gradientUnits="userSpaceOnUse">
<stop stop-color="#52383E"/>
<stop offset="1" stop-color="#432A35"/>
</linearGradient>
<linearGradient id="paint9_linear_2435_322" x1="12.925" y1="6.70313" x2="13.0866" y2="7.67319" gradientUnits="userSpaceOnUse">
<stop stop-color="#52383E"/>
<stop offset="1" stop-color="#432A35"/>
</linearGradient>
<linearGradient id="paint10_linear_2435_322" x1="5.27106" y1="5.0875" x2="5.27106" y2="3.85" gradientUnits="userSpaceOnUse">
<stop offset="0.03" stop-color="#524049"/>
<stop offset="1" stop-color="#4A2C42"/>
</linearGradient>
<linearGradient id="paint11_linear_2435_322" x1="13.0625" y1="3.4375" x2="12.0313" y2="4.46875" gradientUnits="userSpaceOnUse">
<stop offset="0.03" stop-color="#524049"/>
<stop offset="1" stop-color="#4A2C42"/>
</linearGradient>
<radialGradient id="paint12_radial_2435_322" cx="0" cy="0" r="1" gradientUnits="userSpaceOnUse" gradientTransform="translate(9.62661 17.1877) rotate(-90) scale(7.21875 19.5315)">
<stop stop-color="#F70A8D"/>
<stop offset="1" stop-color="#89029C"/>
</radialGradient>
<radialGradient id="paint13_radial_2435_322" cx="0" cy="0" r="1" gradientUnits="userSpaceOnUse" gradientTransform="translate(8.93606 12.0313) rotate(-49.405) scale(3.16892 4.3245)">
<stop offset="0.454" stop-color="white"/>
<stop offset="0.84" stop-color="#ECCDFF"/>
<stop offset="1" stop-color="#D590FF"/>
</radialGradient>
</defs>
</svg>
