<svg width="19" height="17" viewBox="0 0 19 17" fill="none" xmlns="http://www.w3.org/2000/svg">
<path d="M9.5 16.2129L4.79004 11.5029L9.14648 15.8535L9.5 16.207L9.85352 15.8535L14.209 11.5029L9.5 16.2129ZM18.5 5.25C18.5 6.18801 18.2259 7.0565 17.7539 7.79492C18.2157 7.06378 18.5 6.18438 18.5 5.25ZM9.79004 2.625C9.7869 2.62975 9.78437 2.63489 9.78125 2.63965H9.77832L9.90625 2.46191L9.79004 2.625ZM9.09375 2.46191L9.22168 2.63965H9.21875C9.17893 2.57904 9.13624 2.52054 9.09375 2.46191ZM8.8916 2.20215C8.91305 2.22794 8.93416 2.25401 8.95508 2.28027C8.93408 2.25407 8.91314 2.22789 8.8916 2.20215ZM10.0537 2.2666C10.0659 2.25145 10.0785 2.23668 10.0908 2.22168C10.0784 2.23665 10.0659 2.25147 10.0537 2.2666ZM8.67773 1.96289C8.71319 2.00006 8.74797 2.03783 8.78223 2.07617C8.74788 2.03793 8.7133 1.99999 8.67773 1.96289ZM10.2393 2.05078C10.2533 2.03525 10.2679 2.02023 10.2822 2.00488C10.2679 2.0202 10.2534 2.03527 10.2393 2.05078ZM8.47949 1.76758C8.51572 1.80132 8.55175 1.83523 8.58691 1.87012C8.55169 1.83532 8.51579 1.80127 8.47949 1.76758ZM10.4229 1.8584C10.4535 1.82816 10.4851 1.79892 10.5166 1.76953C10.4851 1.79886 10.4536 1.82823 10.4229 1.8584ZM8.21387 1.53809C8.26441 1.57858 8.31446 1.61958 8.36328 1.66211C8.31441 1.61967 8.26447 1.57853 8.21387 1.53809ZM10.6357 1.66211C10.6872 1.61727 10.7406 1.57482 10.7939 1.53223C10.7405 1.57474 10.6872 1.61737 10.6357 1.66211ZM7.94824 1.33984C8.02054 1.38987 8.09181 1.44119 8.16113 1.49512C8.09178 1.4413 8.02059 1.38982 7.94824 1.33984ZM11.3652 1.13965C11.1885 1.24214 11.0194 1.35594 10.8584 1.47949C11.0995 1.2939 11.3588 1.13086 11.6338 0.994141C11.5428 1.03934 11.4534 1.0885 11.3652 1.13965ZM7.12109 0.881836C7.21863 0.923598 7.31533 0.968183 7.41016 1.0166C7.58515 1.10596 7.75338 1.20661 7.91504 1.31641C7.66623 1.14764 7.40067 1.00156 7.12109 0.881836ZM11.6533 0.985352C11.7407 0.942381 11.8295 0.901894 11.9199 0.864258C11.8299 0.901761 11.741 0.942255 11.6533 0.985352ZM6.82812 0.767578C6.9187 0.799402 7.00804 0.834701 7.09668 0.87207C7.0084 0.834848 6.91903 0.799526 6.82812 0.767578ZM11.9316 0.859375C12.0166 0.824246 12.103 0.791967 12.1904 0.761719C12.1034 0.79191 12.0169 0.824106 11.9316 0.859375ZM6.54102 0.677734C6.6323 0.703403 6.72284 0.73154 6.8125 0.762695C6.72321 0.731663 6.63264 0.703505 6.54102 0.677734ZM12.2412 0.744141C12.3226 0.717032 12.405 0.692687 12.4883 0.669922C12.4054 0.692696 12.3228 0.716877 12.2412 0.744141ZM6.24219 0.604492C6.32743 0.622563 6.41198 0.643253 6.49609 0.666016C6.41231 0.643338 6.32773 0.622639 6.24219 0.604492ZM12.5283 0.658203C12.6024 0.638638 12.6774 0.621503 12.7529 0.605469C12.6777 0.621548 12.6027 0.638488 12.5283 0.658203ZM5.94141 0.550781C6.02649 0.563131 6.1111 0.577764 6.19531 0.594727C6.11144 0.577821 6.02681 0.563213 5.94141 0.550781ZM12.8477 0.585938C12.9081 0.57439 12.969 0.564909 13.0303 0.555664C12.9692 0.564958 12.9082 0.574277 12.8477 0.585938ZM5.64648 0.517578C5.72193 0.523719 5.79712 0.531271 5.87207 0.541016C5.79741 0.531267 5.72219 0.523824 5.64648 0.517578ZM13.1445 0.538086C13.2102 0.529798 13.2763 0.524153 13.3428 0.518555C13.2765 0.524175 13.2104 0.529701 13.1445 0.538086ZM5.25098 0.5C5.35333 0.499731 5.4558 0.503413 5.55762 0.509766C5.45591 0.503277 5.35334 0.5 5.25 0.5H5.25098ZM13.75 0.5C13.6488 0.49986 13.5479 0.502493 13.4473 0.508789C13.5473 0.502547 13.6483 0.5 13.75 0.5Z" fill="black" stroke="#7A757F"/>
</svg>
