<svg width="16" height="16" viewBox="0 0 16 16" fill="none" xmlns="http://www.w3.org/2000/svg">
<path d="M7.92436 0.509039C7.39686 0.520289 7.24436 1.09529 7.05561 1.56529C6.86686 2.03529 5.74311 4.59154 5.01561 5.88154C4.28811 7.17154 3.30311 8.86154 3.44311 11.2778C3.58436 13.694 5.46061 15.4978 8.08936 15.4778C10.4656 15.4603 12.5444 14.0903 12.6294 11.114C12.6994 8.65029 11.3444 6.52154 10.6756 5.21904C10.2781 4.44404 8.97686 1.85029 8.83936 1.52904C8.59311 0.954039 8.48811 0.496539 7.92436 0.509039Z" fill="#E53935"/>
<path d="M5.92188 8.05203C5.55187 8.06828 4.67188 9.21328 4.67188 10.657C4.67188 12.1008 5.35312 13.167 6.09687 13.0145C6.95937 12.8383 6.81812 11.9583 6.64187 11.2545C6.49062 10.6495 6.25437 9.93453 6.20187 9.28328C6.16937 8.86203 6.30938 8.03453 5.92188 8.05203Z" fill="#B3E2FB"/>
</svg>
