<svg width="15" height="22" viewBox="0 0 15 22" fill="none" xmlns="http://www.w3.org/2000/svg">
<path d="M10.4986 21.5H4.01861C2.12861 21.5 0.748612 20.71 0.218612 19.35C-0.331388 17.93 0.178612 16.17 1.49861 14.98L6.13861 10.75L1.49861 6.52C0.178612 5.33 -0.331388 3.57 0.218612 2.15C0.748612 0.78 2.12861 0 4.01861 0H10.4986C12.3886 0 13.7686 0.79 14.2986 2.15C14.8486 3.57 14.3386 5.33 13.0186 6.52L8.37861 10.75L13.0286 14.98C14.3386 16.17 14.8586 17.93 14.3086 19.35C13.7686 20.71 12.3886 21.5 10.4986 21.5ZM7.25861 11.76L2.50861 16.08C1.66861 16.85 1.29861 17.97 1.61861 18.8C1.91861 19.57 2.76861 20 4.01861 20H10.4986C11.7486 20 12.5986 19.58 12.8986 18.8C13.2186 17.97 12.8586 16.85 12.0086 16.08L7.25861 11.76ZM4.01861 1.5C2.76861 1.5 1.91861 1.92 1.61861 2.7C1.29861 3.53 1.65861 4.65 2.50861 5.42L7.25861 9.74L12.0086 5.42C12.8486 4.65 13.2186 3.53 12.8986 2.7C12.5986 1.93 11.7486 1.5 10.4986 1.5H4.01861Z" fill="#252B37"/>
</svg>
