<svg width="24" height="24" viewBox="0 0 24 24" fill="none" xmlns="http://www.w3.org/2000/svg">
<path d="M19 8C20.6569 8 22 6.65685 22 5C22 3.34315 20.6569 2 19 2C17.3431 2 16 3.34315 16 5C16 6.65685 17.3431 8 19 8Z" stroke="#252B37" stroke-width="1.5" stroke-linecap="round" stroke-linejoin="round"/>
<path d="M14 2H9C4 2 2 4 2 9V15C2 20 4 22 9 22H15C20 22 22 20 22 15V10" stroke="#252B37" stroke-width="1.5" stroke-linecap="round" stroke-linejoin="round"/>
<path d="M6.80851 14.9299C6.45851 13.8299 6.86851 12.4599 8.02851 12.0899C8.63851 11.8899 9.38851 12.0599 9.81851 12.6499C10.2185 12.0399 10.9985 11.8999 11.5985 12.0899C12.7585 12.4599 13.1685 13.8299 12.8185 14.9299C12.2685 16.6799 10.3485 17.5899 9.81851 17.5899C9.27851 17.5799 7.37851 16.6899 6.80851 14.9299Z" stroke="#252B37" stroke-width="1.5" stroke-linecap="round" stroke-linejoin="round"/>
</svg>
