<svg width="24" height="24" viewBox="0 0 24 24" fill="none" xmlns="http://www.w3.org/2000/svg">
<path d="M18.0759 1.55371L22.2489 5.90371V22.4457H6.66016V22.4997H22.3022V5.95846L18.0759 1.55371Z" fill="#909090"/>
<path d="M18.0227 1.5H6.60547V22.446H22.2475V5.90475L18.0227 1.5Z" fill="#F4F4F4"/>
<path d="M6.49172 2.625H1.69922V7.74525H16.7742V2.625H6.49172Z" fill="#7A7B7C"/>
<path d="M16.8546 7.65818H1.79688V2.53418H16.8546V7.65818Z" fill="#DD2025"/>
<path d="M6.78884 3.40001H5.80859V7.00001H6.57959V5.78576L6.74984 5.79551C6.91533 5.79323 7.07929 5.76358 7.23509 5.70776C7.37206 5.66126 7.49794 5.58695 7.60484 5.48951C7.71447 5.39759 7.8006 5.28087 7.85609 5.14901C7.93203 4.93055 7.95891 4.69804 7.93484 4.46801C7.93057 4.30365 7.90175 4.14085 7.84934 3.98501C7.80212 3.87237 7.7319 3.77083 7.64317 3.68688C7.55445 3.60293 7.44918 3.53844 7.33409 3.49751C7.23488 3.46077 7.13206 3.43462 7.02734 3.41951C6.94824 3.40663 6.86824 3.40011 6.78809 3.40001M6.64634 5.12051H6.57959V4.01051H6.72434C6.78823 4.00591 6.85233 4.01571 6.91192 4.03921C6.9715 4.06271 7.02505 4.09929 7.06859 4.14626C7.15883 4.26702 7.20704 4.41401 7.20584 4.56476C7.20584 4.74926 7.20584 4.91651 7.03934 5.03426C6.91942 5.10032 6.78287 5.13078 6.64634 5.12051ZM9.39959 3.39026C9.31634 3.39026 9.23534 3.39626 9.17834 3.39851L8.99984 3.40301H8.41484V7.00301H9.10334C9.36643 7.00978 9.62831 6.9652 9.87434 6.87176C10.0724 6.79353 10.2478 6.66693 10.3843 6.50351C10.5182 6.33938 10.6137 6.14747 10.6641 5.94176C10.7232 5.70921 10.752 5.46996 10.7496 5.23001C10.7643 4.94663 10.7423 4.66254 10.6843 4.38476C10.6288 4.18053 10.5261 3.99221 10.3843 3.83501C10.2732 3.70789 10.1365 3.60567 9.98309 3.53501C9.85171 3.47411 9.71346 3.42929 9.57134 3.40151C9.51483 3.39225 9.45761 3.38798 9.40034 3.38876M9.26384 6.34151H9.18884V4.04351H9.19859C9.35322 4.02563 9.50968 4.05354 9.64859 4.12376C9.75034 4.20501 9.83325 4.30736 9.89159 4.42376C9.95456 4.54626 9.99086 4.68072 9.99809 4.81826C10.0048 4.98326 9.99809 5.11826 9.99809 5.23001C10.0009 5.35873 9.99259 5.48746 9.97334 5.61476C9.94975 5.74531 9.90704 5.87167 9.84659 5.98976C9.77831 6.09989 9.68504 6.19239 9.57434 6.25976C9.48188 6.31977 9.37225 6.3477 9.26234 6.33926M13.0723 3.40301H11.2498V7.00301H12.0208V5.57501H12.9958V4.90601H12.0208V4.07201H13.0708V3.40301" fill="#464648"/>
<path d="M16.3365 15.1911C16.3365 15.1911 18.7275 14.7576 18.7275 15.5744C18.7275 16.3911 17.2462 16.0589 16.3365 15.1911ZM14.5687 15.2534C14.1888 15.3371 13.8186 15.46 13.464 15.6201L13.764 14.9451C14.064 14.2701 14.3752 13.3499 14.3752 13.3499C14.7323 13.953 15.1489 14.5188 15.6187 15.0389C15.265 15.0916 14.9145 15.1637 14.5687 15.2549V15.2534ZM13.6222 10.3784C13.6222 9.66664 13.8525 9.47239 14.0317 9.47239C14.211 9.47239 14.4127 9.55864 14.4195 10.1766C14.361 10.798 14.2309 11.4106 14.0317 12.0021C13.758 11.5058 13.6167 10.9474 13.6215 10.3806L13.6222 10.3784ZM10.1355 18.2654C9.40199 17.8266 11.6737 16.4759 12.0855 16.4324C12.0832 16.4331 10.9035 18.7244 10.1355 18.2654ZM19.4257 15.6711C19.4182 15.5961 19.3507 14.7659 17.8732 14.8011C17.2574 14.7903 16.6418 14.8338 16.0335 14.9309C15.4439 14.3374 14.9364 13.6677 14.5245 12.9396C14.7838 12.1891 14.941 11.4071 14.9917 10.6146C14.97 9.71464 14.7547 9.19864 14.0647 9.20614C13.3747 9.21364 13.2742 9.81739 13.365 10.7159C13.4538 11.3197 13.6215 11.9092 13.8637 12.4694C13.8637 12.4694 13.545 13.4616 13.1235 14.4486C12.702 15.4356 12.414 15.9531 12.414 15.9531C11.6809 16.1915 10.9909 16.546 10.3702 17.0031C9.75225 17.5784 9.501 18.0201 9.8265 18.4619C10.107 18.8429 11.0887 18.9291 11.9662 17.7794C12.4317 17.185 12.8576 16.5606 13.2412 15.9104C13.2412 15.9104 14.5792 15.5436 14.9955 15.4431C15.4117 15.3426 15.915 15.2631 15.915 15.2631C15.915 15.2631 17.1367 16.4924 18.315 16.4489C19.4932 16.4054 19.4362 15.7446 19.4287 15.6726" fill="#DD2025"/>
<path d="M17.9648 1.55762V5.96237H22.1896L17.9648 1.55762Z" fill="#909090"/>
<path d="M18.0234 1.5V5.90475H22.2482L18.0234 1.5Z" fill="#F4F4F4"/>
<path d="M6.73025 3.3424H5.75V6.9424H6.524V5.7289L6.695 5.73865C6.86048 5.73636 7.02445 5.70671 7.18025 5.6509C7.31722 5.60439 7.4431 5.53009 7.55 5.43265C7.6588 5.34047 7.74415 5.22377 7.799 5.09215C7.87493 4.87368 7.90182 4.64117 7.87775 4.41115C7.87347 4.24678 7.84466 4.08399 7.79225 3.92815C7.74502 3.8155 7.6748 3.71396 7.58608 3.63001C7.49735 3.54607 7.39208 3.48157 7.277 3.44065C7.17733 3.40354 7.074 3.37714 6.96875 3.3619C6.88965 3.34901 6.80964 3.34249 6.7295 3.3424M6.58775 5.0629H6.521V3.9529H6.6665C6.73039 3.94829 6.79449 3.9581 6.85407 3.98159C6.91366 4.00509 6.9672 4.04167 7.01075 4.08865C7.10099 4.20941 7.1492 4.3564 7.148 4.50715C7.148 4.69165 7.148 4.8589 6.9815 4.97665C6.86158 5.0427 6.72502 5.07241 6.5885 5.06215M9.341 3.33265C9.25775 3.33265 9.17675 3.33865 9.11975 3.3409L8.9435 3.3454H8.3585V6.94539H9.047C9.31009 6.95216 9.57197 6.90758 9.818 6.81415C10.0161 6.73592 10.1914 6.60931 10.328 6.4459C10.4618 6.28176 10.5574 6.08986 10.6077 5.88415C10.6669 5.65159 10.6956 5.41234 10.6932 5.1724C10.7079 4.88901 10.686 4.60492 10.628 4.32715C10.5725 4.12291 10.4697 3.9346 10.328 3.7774C10.2168 3.65028 10.0801 3.54805 9.92675 3.4774C9.79537 3.41649 9.65712 3.37167 9.515 3.3439C9.45848 3.33463 9.40126 3.33036 9.344 3.33115M9.2075 6.2839H9.1325V3.9859H9.14225C9.29687 3.96802 9.45334 3.99592 9.59225 4.06615C9.694 4.14739 9.7769 4.24974 9.83525 4.36615C9.89822 4.48865 9.93451 4.6231 9.94175 4.76065C9.9485 4.92565 9.94175 5.06065 9.94175 5.1724C9.94452 5.30112 9.93624 5.42984 9.917 5.55715C9.8934 5.68769 9.8507 5.81405 9.79025 5.93215C9.72196 6.04228 9.6287 6.13478 9.518 6.20215C9.42553 6.26215 9.3159 6.29008 9.206 6.28165M13.0138 3.3454H11.1912V6.94539H11.9622V5.5174H12.9372V4.8484H11.9622V4.0144H13.0122V3.3454" fill="white"/>
</svg>
