<svg width="20" height="20" viewBox="0 0 20 20" fill="none" xmlns="http://www.w3.org/2000/svg">
<path d="M9.62431 19.2486C16.0414 19.2486 19.2486 14.9394 19.2486 9.62362C19.2486 4.30925 16.0414 0 9.62362 0C3.20719 0 0 4.30925 0 9.62431C0 14.9394 3.2065 19.2486 9.62431 19.2486Z" fill="url(#paint0_radial_2435_991)"/>
<path d="M9.62431 19.2486C16.0414 19.2486 19.2486 14.9394 19.2486 9.62362C19.2486 4.30925 16.0414 0 9.62362 0C3.20719 0 0 4.30925 0 9.62431C0 14.9394 3.2065 19.2486 9.62431 19.2486Z" fill="url(#paint1_radial_2435_991)"/>
<path d="M9.62431 19.2486C16.0414 19.2486 19.2486 14.9394 19.2486 9.62362C19.2486 4.30925 16.0414 0 9.62362 0C3.20719 0 0 4.30925 0 9.62431C0 14.9394 3.2065 19.2486 9.62431 19.2486Z" fill="url(#paint2_radial_2435_991)"/>
<path d="M9.62431 19.2486C16.0414 19.2486 19.2486 14.9394 19.2486 9.62362C19.2486 4.30925 16.0414 0 9.62362 0C3.20719 0 0 4.30925 0 9.62431C0 14.9394 3.2065 19.2486 9.62431 19.2486Z" fill="url(#paint3_radial_2435_991)" fill-opacity="0.6"/>
<path d="M9.62431 19.2486C16.0414 19.2486 19.2486 14.9394 19.2486 9.62362C19.2486 4.30925 16.0414 0 9.62362 0C3.20719 0 0 4.30925 0 9.62431C0 14.9394 3.2065 19.2486 9.62431 19.2486Z" fill="url(#paint4_radial_2435_991)"/>
<path d="M9.62431 19.2486C16.0414 19.2486 19.2486 14.9394 19.2486 9.62362C19.2486 4.30925 16.0414 0 9.62362 0C3.20719 0 0 4.30925 0 9.62431C0 14.9394 3.2065 19.2486 9.62431 19.2486Z" fill="url(#paint5_radial_2435_991)"/>
<path d="M9.62431 19.2486C16.0414 19.2486 19.2486 14.9394 19.2486 9.62362C19.2486 4.30925 16.0414 0 9.62362 0C3.20719 0 0 4.30925 0 9.62431C0 14.9394 3.2065 19.2486 9.62431 19.2486Z" fill="url(#paint6_radial_2435_991)"/>
<path d="M9.62431 19.2486C16.0414 19.2486 19.2486 14.9394 19.2486 9.62362C19.2486 4.30925 16.0414 0 9.62362 0C3.20719 0 0 4.30925 0 9.62431C0 14.9394 3.2065 19.2486 9.62431 19.2486Z" fill="url(#paint7_radial_2435_991)"/>
<path d="M4.82597 11.065C6.60029 11.065 8.03866 9.62665 8.03866 7.85234C8.03866 6.07802 6.60029 4.63965 4.82597 4.63965C3.05165 4.63965 1.61328 6.07802 1.61328 7.85234C1.61328 9.62665 3.05165 11.065 4.82597 11.065Z" fill="url(#paint8_radial_2435_991)"/>
<path d="M11.8552 11.1285C13.4667 11.1285 14.773 9.82215 14.773 8.21072C14.773 6.59929 13.4667 5.29297 11.8552 5.29297C10.2438 5.29297 8.9375 6.59929 8.9375 8.21072C8.9375 9.82215 10.2438 11.1285 11.8552 11.1285Z" fill="url(#paint9_radial_2435_991)"/>
<path d="M5.78845 9.77934C6.17189 9.78526 6.55267 9.71484 6.90864 9.57219C7.26461 9.42955 7.58865 9.21752 7.86189 8.94845C8.13514 8.67939 8.35214 8.35865 8.50026 8.00493C8.64838 7.6512 8.72466 7.27155 8.72466 6.88806C8.72466 6.50458 8.64838 6.12492 8.50026 5.7712C8.35214 5.41747 8.13514 5.09674 7.86189 4.82767C7.58865 4.55861 7.26461 4.34658 6.90864 4.20393C6.55267 4.06128 6.17189 3.99087 5.78845 3.99678C5.02935 4.00849 4.30531 4.31825 3.77264 4.8592C3.23997 5.40015 2.94141 6.12888 2.94141 6.88806C2.94141 7.64725 3.23997 8.37598 3.77264 8.91692C4.30531 9.45787 5.02935 9.76764 5.78845 9.77934ZM13.4527 9.83228C14.2266 9.83228 14.9689 9.52484 15.5161 8.97759C16.0633 8.43034 16.3708 7.68811 16.3708 6.91419C16.3708 6.14026 16.0633 5.39803 15.5161 4.85078C14.9689 4.30354 14.2266 3.99609 13.4527 3.99609C12.6787 3.99609 11.9364 4.30357 11.389 4.85088C10.8417 5.3982 10.5343 6.14051 10.5343 6.91453C10.5343 7.68855 10.8417 8.43086 11.389 8.97818C11.9364 9.52549 12.6787 9.83228 13.4527 9.83228Z" fill="white"/>
<path d="M6.1875 8.9375C6.73451 8.9375 7.25911 8.7202 7.64591 8.33341C8.0327 7.94661 8.25 7.42201 8.25 6.875C8.25 6.32799 8.0327 5.80339 7.64591 5.41659C7.25911 5.0298 6.73451 4.8125 6.1875 4.8125C5.64049 4.8125 5.11589 5.0298 4.72909 5.41659C4.3423 5.80339 4.125 6.32799 4.125 6.875C4.125 7.42201 4.3423 7.94661 4.72909 8.33341C5.11589 8.7202 5.64049 8.9375 6.1875 8.9375Z" fill="url(#paint10_linear_2435_991)"/>
<path d="M13.0625 8.9375C13.6095 8.9375 14.1341 8.7202 14.5209 8.33341C14.9077 7.94661 15.125 7.42201 15.125 6.875C15.125 6.32799 14.9077 5.80339 14.5209 5.41659C14.1341 5.0298 13.6095 4.8125 13.0625 4.8125C12.5155 4.8125 11.9909 5.0298 11.6041 5.41659C11.2173 5.80339 11 6.32799 11 6.875C11 7.42201 11.2173 7.94661 11.6041 8.33341C11.9909 8.7202 12.5155 8.9375 13.0625 8.9375Z" fill="url(#paint11_linear_2435_991)"/>
<path fill-rule="evenodd" clip-rule="evenodd" d="M5.775 11.1375C5.84723 11.0833 5.92942 11.0439 6.01688 11.0215C6.10434 10.9991 6.19535 10.9941 6.28473 11.0069C6.37411 11.0197 6.46009 11.0499 6.53778 11.0959C6.61547 11.1419 6.68333 11.2028 6.7375 11.275C6.95063 11.5589 7.9145 12.375 9.625 12.375C11.3355 12.375 12.2994 11.5589 12.5125 11.275C12.5667 11.2028 12.6345 11.1419 12.7122 11.0959C12.7899 11.0499 12.8759 11.0197 12.9653 11.0069C13.0547 10.9941 13.1457 10.9991 13.2331 11.0215C13.3206 11.0439 13.4028 11.0833 13.475 11.1375C13.5472 11.1917 13.6081 11.2595 13.6541 11.3372C13.7001 11.4149 13.7303 11.5009 13.7431 11.5903C13.7559 11.6796 13.7509 11.7707 13.7285 11.8581C13.7061 11.9456 13.6667 12.0278 13.6125 12.1C13.1381 12.7325 11.7645 13.75 9.625 13.75C7.4855 13.75 6.11188 12.7325 5.6375 12.1C5.5281 11.9541 5.48113 11.7708 5.50691 11.5903C5.5327 11.4098 5.62913 11.2469 5.775 11.1375Z" fill="url(#paint12_radial_2435_991)"/>
<defs>
<radialGradient id="paint0_radial_2435_991" cx="0" cy="0" r="1" gradientUnits="userSpaceOnUse" gradientTransform="translate(16.1564 4.81221) rotate(132.839) scale(25.7835)">
<stop stop-color="#FFF478"/>
<stop offset="0.475" stop-color="#FFB02E"/>
<stop offset="1" stop-color="#F70A8D"/>
</radialGradient>
<radialGradient id="paint1_radial_2435_991" cx="0" cy="0" r="1" gradientUnits="userSpaceOnUse" gradientTransform="translate(16.1554 4.81294) rotate(131.878) scale(26.7772)">
<stop stop-color="#FFF478"/>
<stop offset="0.475" stop-color="#FFB02E"/>
<stop offset="1" stop-color="#F70A8D"/>
</radialGradient>
<radialGradient id="paint2_radial_2435_991" cx="0" cy="0" r="1" gradientUnits="userSpaceOnUse" gradientTransform="translate(9.62452 7.21856) rotate(101.31) scale(12.2695 15.7149)">
<stop offset="0.788" stop-color="#F59639" stop-opacity="0"/>
<stop offset="0.973" stop-color="#FF7DCE"/>
</radialGradient>
<radialGradient id="paint3_radial_2435_991" cx="0" cy="0" r="1" gradientUnits="userSpaceOnUse" gradientTransform="translate(11 8.25) rotate(135) scale(28.1959)">
<stop offset="0.315" stop-opacity="0"/>
<stop offset="1"/>
</radialGradient>
<radialGradient id="paint4_radial_2435_991" cx="0" cy="0" r="1" gradientUnits="userSpaceOnUse" gradientTransform="translate(9.62497 10.313) rotate(77.692) scale(19.351)">
<stop offset="0.508" stop-color="#7D6133" stop-opacity="0"/>
<stop offset="1" stop-color="#715B32"/>
</radialGradient>
<radialGradient id="paint5_radial_2435_991" cx="0" cy="0" r="1" gradientUnits="userSpaceOnUse" gradientTransform="translate(9.96875 9.96875) rotate(55.713) scale(9.15303 6.6346)">
<stop stop-color="#FFB849"/>
<stop offset="1" stop-color="#FFB847" stop-opacity="0"/>
</radialGradient>
<radialGradient id="paint6_radial_2435_991" cx="0" cy="0" r="1" gradientUnits="userSpaceOnUse" gradientTransform="translate(12.7188 11) rotate(9.86582) scale(8.02491)">
<stop stop-color="#FFA64B"/>
<stop offset="0.9" stop-color="#FFAE46" stop-opacity="0"/>
</radialGradient>
<radialGradient id="paint7_radial_2435_991" cx="0" cy="0" r="1" gradientUnits="userSpaceOnUse" gradientTransform="translate(10.6563 8.93769) rotate(43.971) scale(40.5989)">
<stop offset="0.185" stop-opacity="0"/>
<stop offset="1" stop-opacity="0.4"/>
</radialGradient>
<radialGradient id="paint8_radial_2435_991" cx="0" cy="0" r="1" gradientUnits="userSpaceOnUse" gradientTransform="translate(7.32575 5.35254) rotate(135) scale(6.26023 3.24008)">
<stop stop-color="#392108"/>
<stop offset="1" stop-color="#C87928" stop-opacity="0"/>
</radialGradient>
<radialGradient id="paint9_radial_2435_991" cx="0" cy="0" r="1" gradientUnits="userSpaceOnUse" gradientTransform="translate(14.1252 5.94076) rotate(135) scale(5.2729 2.97664)">
<stop stop-color="#392108"/>
<stop offset="1" stop-color="#C87928" stop-opacity="0"/>
</radialGradient>
<linearGradient id="paint10_linear_2435_991" x1="9.96875" y1="4.125" x2="9.28125" y2="8.9375" gradientUnits="userSpaceOnUse">
<stop stop-color="#553B3E"/>
<stop offset="1" stop-color="#3D2432"/>
</linearGradient>
<linearGradient id="paint11_linear_2435_991" x1="9.96875" y1="4.125" x2="9.28125" y2="8.9375" gradientUnits="userSpaceOnUse">
<stop stop-color="#553B3E"/>
<stop offset="1" stop-color="#3D2432"/>
</linearGradient>
<radialGradient id="paint12_radial_2435_991" cx="0" cy="0" r="1" gradientUnits="userSpaceOnUse" gradientTransform="translate(9.625 10.3125) rotate(90) scale(3.78125 5.78775)">
<stop offset="0.348" stop-color="#241A1A"/>
<stop offset="0.628" stop-color="#57444A"/>
<stop offset="1" stop-color="#502A56"/>
</radialGradient>
</defs>
</svg>
