<svg width="15" height="15" viewBox="0 0 15 15" fill="none" xmlns="http://www.w3.org/2000/svg">
<path d="M7.27008 14.6667C5.40864 14.6667 3.78583 14.0586 2.40167 12.8425C1.01811 11.627 0.217556 10.0962 0 8.25H0.92675C1.17608 9.82667 1.89444 11.1375 3.08183 12.1825C4.26922 13.2275 5.66531 13.75 7.27008 13.75C9.05758 13.75 10.5737 13.1276 11.8186 11.8827C13.0634 10.6379 13.6861 9.12144 13.6868 7.33333C13.6874 5.54522 13.0646 4.02875 11.8186 2.78392C10.5725 1.53908 9.05636 0.916667 7.27008 0.916667C6.32103 0.916667 5.42942 1.11711 4.59525 1.518C3.76108 1.91828 3.02469 2.46981 2.38608 3.17258H4.66033V4.08925H0.853416V0.28325H1.77008V2.47225C2.47897 1.69431 3.30947 1.08808 4.26158 0.653583C5.21369 0.219083 6.21653 0.00122222 7.27008 0C8.28636 0 9.23908 0.191278 10.1283 0.573833C11.0174 0.956389 11.7941 1.48011 12.4584 2.145C13.1227 2.80989 13.6464 3.58661 14.0296 4.47517C14.4128 5.36372 14.604 6.31644 14.6034 7.33333C14.6028 8.35022 14.4115 9.30294 14.0296 10.1915C13.6476 11.0801 13.1239 11.8568 12.4584 12.5217C11.7929 13.1866 11.0162 13.7103 10.1283 14.0928C9.24031 14.4754 8.28758 14.6667 7.27008 14.6667ZM10.2071 10.8662L6.864 7.524V2.75H7.78067V7.14267L10.8552 10.2172L10.2071 10.8662Z" fill="#171212"/>
</svg>
